<?xml version="1.0" encoding="UTF-8"?>
<svg xmlns="http://www.w3.org/2000/svg" xmlns:xlink="http://www.w3.org/1999/xlink" width="50pt" height="50pt" viewBox="0 0 50 50" version="1.1">
<g id="surface1">
<path style=" stroke:none;fill-rule:nonzero;fill:#000000;fill-opacity:1;" d="M 24.707031 7.90625 C 24.664063 7.914063 24.625 7.925781 24.585938 7.9375 C 24.125 8.042969 23.796875 8.457031 23.808594 8.929688 L 23.808594 38.226563 L 14.695313 29.109375 C 14.507813 28.914063 14.253906 28.804688 13.980469 28.800781 C 13.578125 28.804688 13.21875 29.050781 13.066406 29.425781 C 12.921875 29.796875 13.007813 30.226563 13.300781 30.507813 L 24.089844 41.324219 L 24.800781 42.007813 L 25.515625 41.324219 L 36.304688 30.507813 C 36.597656 30.265625 36.734375 29.882813 36.648438 29.511719 C 36.5625 29.140625 36.273438 28.851563 35.902344 28.765625 C 35.53125 28.679688 35.148438 28.816406 34.910156 29.109375 L 25.792969 38.226563 L 25.792969 8.929688 C 25.804688 8.640625 25.6875 8.367188 25.484375 8.171875 C 25.273438 7.976563 24.992188 7.878906 24.707031 7.90625 Z "/>
</g>
</svg>
