<?xml version="1.0" encoding="UTF-8"?>
<svg xmlns="http://www.w3.org/2000/svg" xmlns:xlink="http://www.w3.org/1999/xlink" width="100pt" height="100pt" viewBox="0 0 100 100" version="1.1">
<g id="surface1">
<path style=" stroke:none;fill-rule:nonzero;fill:#000000;fill-opacity:1;" d="M 77.441406 93.253906 C 77.410156 93.253906 77.382813 93.253906 77.351563 93.253906 C 62.4375 92.765625 44.96875 78.3125 32.933594 66.265625 C 20.878906 54.222656 6.425781 36.746094 5.960938 21.902344 C 5.789063 16.695313 18.570313 7.433594 18.703125 7.339844 C 22.019531 5.03125 25.699219 5.851563 27.210938 7.945313 C 28.234375 9.363281 37.921875 24.042969 38.976563 25.707031 C 40.070313 27.4375 39.90625 30.011719 38.542969 32.589844 C 37.792969 34.023438 35.296875 38.410156 34.125 40.457031 C 35.390625 42.253906 38.730469 46.664063 45.628906 53.5625 C 52.53125 60.460938 56.933594 63.808594 58.742188 65.074219 C 60.789063 63.902344 65.175781 61.40625 66.609375 60.65625 C 69.148438 59.308594 71.707031 59.136719 73.453125 60.207031 C 75.234375 61.296875 89.875 71.035156 91.222656 71.972656 C 92.355469 72.769531 93.082031 74.132813 93.230469 75.722656 C 93.371094 77.328125 92.875 79.023438 91.84375 80.503906 C 91.757813 80.628906 82.605469 93.253906 77.441406 93.253906 Z "/>
</g>
</svg>
